<mxfile host="app.diagrams.net" modified="2024-06-24T17:23:59.771Z" agent="Mozilla/5.0 (Windows NT 10.0; Win64; x64) AppleWebKit/537.36 (KHTML, like Gecko) Chrome/126.0.0.0 Safari/537.36 Edg/126.0.0.0" etag="ccDljJMBEFaJe8T6hvja" version="24.6.2" type="github">
  <diagram name="Página-1" id="Pke8mfe5lKtThJGU7i_4">
    <mxGraphModel dx="1351" dy="673" grid="1" gridSize="10" guides="1" tooltips="1" connect="1" arrows="1" fold="1" page="1" pageScale="1" pageWidth="827" pageHeight="1169" math="0" shadow="0">
      <root>
        <mxCell id="0" />
        <mxCell id="1" parent="0" />
        <mxCell id="HlKlNwCH5ZgdbXaKiqXz-1" value="User case Diagram FitFlowApp" style="swimlane;whiteSpace=wrap;html=1;" vertex="1" parent="1">
          <mxGeometry x="260" width="730" height="760" as="geometry" />
        </mxCell>
        <mxCell id="HlKlNwCH5ZgdbXaKiqXz-4" value="&amp;lt;&amp;lt;UC-01-Clients&amp;gt;&amp;gt;&lt;div&gt;Solicitar inscripción&lt;/div&gt;" style="ellipse;whiteSpace=wrap;html=1;" vertex="1" parent="HlKlNwCH5ZgdbXaKiqXz-1">
          <mxGeometry x="40" y="130" width="140" height="70" as="geometry" />
        </mxCell>
        <mxCell id="HlKlNwCH5ZgdbXaKiqXz-12" value="&lt;div&gt;Gestión Clientes/Inscripción&lt;/div&gt;" style="ellipse;whiteSpace=wrap;html=1;fillColor=#d5e8d4;strokeColor=#82b366;" vertex="1" parent="HlKlNwCH5ZgdbXaKiqXz-1">
          <mxGeometry x="290" y="50" width="140" height="70" as="geometry" />
        </mxCell>
        <mxCell id="HlKlNwCH5ZgdbXaKiqXz-14" value="&amp;lt;&amp;lt;UC-02-Clients&amp;gt;&amp;gt;&lt;div&gt;Modificar cliente&lt;/div&gt;" style="ellipse;whiteSpace=wrap;html=1;" vertex="1" parent="HlKlNwCH5ZgdbXaKiqXz-1">
          <mxGeometry x="540" y="240" width="140" height="70" as="geometry" />
        </mxCell>
        <mxCell id="HlKlNwCH5ZgdbXaKiqXz-15" value="&amp;lt;&amp;lt;UC-01-Clients&amp;gt;&amp;gt;&lt;div&gt;Eliminar cliente&lt;/div&gt;" style="ellipse;whiteSpace=wrap;html=1;" vertex="1" parent="HlKlNwCH5ZgdbXaKiqXz-1">
          <mxGeometry x="540" y="320" width="140" height="70" as="geometry" />
        </mxCell>
        <mxCell id="HlKlNwCH5ZgdbXaKiqXz-23" value="&amp;lt;&amp;lt;UC-01-Clients&amp;gt;&amp;gt;&lt;div&gt;Cancelar inscripción&lt;/div&gt;" style="ellipse;whiteSpace=wrap;html=1;" vertex="1" parent="HlKlNwCH5ZgdbXaKiqXz-1">
          <mxGeometry x="40" y="220" width="140" height="70" as="geometry" />
        </mxCell>
        <mxCell id="HlKlNwCH5ZgdbXaKiqXz-24" value="&amp;lt;&amp;lt;UC-01-Clients&amp;gt;&amp;gt;&lt;div&gt;Modificar inscripción&lt;/div&gt;" style="ellipse;whiteSpace=wrap;html=1;" vertex="1" parent="HlKlNwCH5ZgdbXaKiqXz-1">
          <mxGeometry x="40" y="320" width="140" height="70" as="geometry" />
        </mxCell>
        <mxCell id="HlKlNwCH5ZgdbXaKiqXz-9" value="extends" style="endArrow=open;endSize=12;dashed=1;html=1;rounded=0;entryX=1;entryY=0.5;entryDx=0;entryDy=0;exitX=0.5;exitY=0;exitDx=0;exitDy=0;edgeStyle=orthogonalEdgeStyle;curved=1;" edge="1" parent="HlKlNwCH5ZgdbXaKiqXz-1" source="HlKlNwCH5ZgdbXaKiqXz-7" target="HlKlNwCH5ZgdbXaKiqXz-6">
          <mxGeometry x="-0.0526" y="-5" width="160" relative="1" as="geometry">
            <mxPoint x="315" y="360" as="sourcePoint" />
            <mxPoint x="475" y="360" as="targetPoint" />
            <Array as="points">
              <mxPoint x="425" y="205" />
            </Array>
            <mxPoint as="offset" />
          </mxGeometry>
        </mxCell>
        <mxCell id="HlKlNwCH5ZgdbXaKiqXz-7" value="&amp;lt;&amp;lt;UC-01-Clients&amp;gt;&amp;gt;&lt;div&gt;Crear Cliente&lt;/div&gt;" style="ellipse;whiteSpace=wrap;html=1;" vertex="1" parent="HlKlNwCH5ZgdbXaKiqXz-1">
          <mxGeometry x="355" y="230" width="140" height="70" as="geometry" />
        </mxCell>
        <mxCell id="HlKlNwCH5ZgdbXaKiqXz-6" value="&amp;lt;&amp;lt;UC-01-Employee&amp;gt;&amp;gt;&lt;div&gt;Crear inscripción&lt;/div&gt;" style="ellipse;whiteSpace=wrap;html=1;" vertex="1" parent="HlKlNwCH5ZgdbXaKiqXz-1">
          <mxGeometry x="205" y="170" width="140" height="70" as="geometry" />
        </mxCell>
        <mxCell id="HlKlNwCH5ZgdbXaKiqXz-29" value="extends" style="endArrow=open;endSize=12;dashed=1;html=1;rounded=0;entryX=0.983;entryY=0.383;entryDx=0;entryDy=0;exitX=0.5;exitY=0;exitDx=0;exitDy=0;edgeStyle=orthogonalEdgeStyle;curved=1;entryPerimeter=0;" edge="1" parent="HlKlNwCH5ZgdbXaKiqXz-1" source="HlKlNwCH5ZgdbXaKiqXz-6" target="HlKlNwCH5ZgdbXaKiqXz-4">
          <mxGeometry width="160" relative="1" as="geometry">
            <mxPoint x="260" y="260" as="sourcePoint" />
            <mxPoint x="420" y="260" as="targetPoint" />
          </mxGeometry>
        </mxCell>
        <mxCell id="HlKlNwCH5ZgdbXaKiqXz-33" value="&amp;lt;&amp;lt;UC-01-Clients&amp;gt;&amp;gt;&lt;div&gt;Solicitar rutina&lt;/div&gt;" style="ellipse;whiteSpace=wrap;html=1;" vertex="1" parent="HlKlNwCH5ZgdbXaKiqXz-1">
          <mxGeometry x="140" y="420" width="140" height="70" as="geometry" />
        </mxCell>
        <mxCell id="HlKlNwCH5ZgdbXaKiqXz-36" value="&amp;lt;&amp;lt;UC-01-Trainer&amp;gt;&amp;gt;&lt;div&gt;Crear rutina&lt;/div&gt;" style="ellipse;whiteSpace=wrap;html=1;" vertex="1" parent="HlKlNwCH5ZgdbXaKiqXz-1">
          <mxGeometry x="310" y="470" width="140" height="70" as="geometry" />
        </mxCell>
        <mxCell id="HlKlNwCH5ZgdbXaKiqXz-35" value="extends" style="endArrow=open;endSize=12;dashed=1;html=1;rounded=0;entryX=1;entryY=0;entryDx=0;entryDy=0;exitX=0.5;exitY=0;exitDx=0;exitDy=0;edgeStyle=orthogonalEdgeStyle;curved=1;" edge="1" parent="HlKlNwCH5ZgdbXaKiqXz-1" source="HlKlNwCH5ZgdbXaKiqXz-36" target="HlKlNwCH5ZgdbXaKiqXz-33">
          <mxGeometry width="160" relative="1" as="geometry">
            <mxPoint x="340" y="440" as="sourcePoint" />
            <mxPoint x="440" y="390" as="targetPoint" />
          </mxGeometry>
        </mxCell>
        <mxCell id="HlKlNwCH5ZgdbXaKiqXz-39" value="&lt;div&gt;Gestión Rutinas&lt;/div&gt;" style="ellipse;whiteSpace=wrap;html=1;fillColor=#d5e8d4;strokeColor=#82b366;" vertex="1" parent="HlKlNwCH5ZgdbXaKiqXz-1">
          <mxGeometry x="280" y="340" width="140" height="70" as="geometry" />
        </mxCell>
        <mxCell id="HlKlNwCH5ZgdbXaKiqXz-41" value="&amp;lt;&amp;lt;UC-01-Trainer&amp;gt;&amp;gt;&lt;div&gt;Crear rutina&lt;/div&gt;" style="ellipse;whiteSpace=wrap;html=1;" vertex="1" parent="HlKlNwCH5ZgdbXaKiqXz-1">
          <mxGeometry x="540" y="600" width="140" height="70" as="geometry" />
        </mxCell>
        <mxCell id="HlKlNwCH5ZgdbXaKiqXz-40" value="&amp;lt;&amp;lt;UC-01-Trainer&amp;gt;&amp;gt;&lt;div&gt;Crear rutina&lt;/div&gt;" style="ellipse;whiteSpace=wrap;html=1;" vertex="1" parent="HlKlNwCH5ZgdbXaKiqXz-1">
          <mxGeometry x="540" y="515" width="140" height="70" as="geometry" />
        </mxCell>
        <mxCell id="HlKlNwCH5ZgdbXaKiqXz-63" value="&amp;lt;&amp;lt;UC-01-Clients&amp;gt;&amp;gt;&lt;div&gt;Cancelar rutina&lt;/div&gt;" style="ellipse;whiteSpace=wrap;html=1;" vertex="1" parent="HlKlNwCH5ZgdbXaKiqXz-1">
          <mxGeometry x="40" y="500" width="140" height="70" as="geometry" />
        </mxCell>
        <mxCell id="HlKlNwCH5ZgdbXaKiqXz-2" value="Client" style="shape=umlActor;verticalLabelPosition=bottom;verticalAlign=top;html=1;outlineConnect=0;" vertex="1" parent="1">
          <mxGeometry x="170" y="150" width="30" height="60" as="geometry" />
        </mxCell>
        <mxCell id="HlKlNwCH5ZgdbXaKiqXz-3" value="Employee" style="shape=umlActor;verticalLabelPosition=bottom;verticalAlign=top;html=1;outlineConnect=0;" vertex="1" parent="1">
          <mxGeometry x="1070" y="150" width="30" height="60" as="geometry" />
        </mxCell>
        <mxCell id="HlKlNwCH5ZgdbXaKiqXz-16" value="" style="endArrow=none;html=1;rounded=0;entryX=0.5;entryY=0.5;entryDx=0;entryDy=0;entryPerimeter=0;exitX=1;exitY=0;exitDx=0;exitDy=0;" edge="1" parent="1" source="HlKlNwCH5ZgdbXaKiqXz-12" target="HlKlNwCH5ZgdbXaKiqXz-3">
          <mxGeometry width="50" height="50" relative="1" as="geometry">
            <mxPoint x="610" y="290" as="sourcePoint" />
            <mxPoint x="660" y="240" as="targetPoint" />
            <Array as="points">
              <mxPoint x="890" y="60" />
            </Array>
          </mxGeometry>
        </mxCell>
        <mxCell id="HlKlNwCH5ZgdbXaKiqXz-19" value="" style="endArrow=none;html=1;rounded=0;entryX=0.5;entryY=0.5;entryDx=0;entryDy=0;entryPerimeter=0;exitX=1;exitY=0.5;exitDx=0;exitDy=0;" edge="1" parent="1" source="HlKlNwCH5ZgdbXaKiqXz-14" target="HlKlNwCH5ZgdbXaKiqXz-3">
          <mxGeometry width="50" height="50" relative="1" as="geometry">
            <mxPoint x="620" y="290" as="sourcePoint" />
            <mxPoint x="670" y="240" as="targetPoint" />
            <Array as="points">
              <mxPoint x="1010" y="240" />
            </Array>
          </mxGeometry>
        </mxCell>
        <mxCell id="HlKlNwCH5ZgdbXaKiqXz-20" value="" style="endArrow=none;html=1;rounded=0;entryX=0.5;entryY=0.5;entryDx=0;entryDy=0;entryPerimeter=0;exitX=1;exitY=0;exitDx=0;exitDy=0;" edge="1" parent="1" source="HlKlNwCH5ZgdbXaKiqXz-7" target="HlKlNwCH5ZgdbXaKiqXz-3">
          <mxGeometry width="50" height="50" relative="1" as="geometry">
            <mxPoint x="620" y="290" as="sourcePoint" />
            <mxPoint x="670" y="240" as="targetPoint" />
            <Array as="points">
              <mxPoint x="890" y="220" />
            </Array>
          </mxGeometry>
        </mxCell>
        <mxCell id="HlKlNwCH5ZgdbXaKiqXz-28" value="" style="endArrow=none;html=1;rounded=0;entryX=0.5;entryY=0.5;entryDx=0;entryDy=0;entryPerimeter=0;exitX=1;exitY=0.5;exitDx=0;exitDy=0;" edge="1" parent="1" source="HlKlNwCH5ZgdbXaKiqXz-15" target="HlKlNwCH5ZgdbXaKiqXz-3">
          <mxGeometry width="50" height="50" relative="1" as="geometry">
            <mxPoint x="580" y="290" as="sourcePoint" />
            <mxPoint x="630" y="240" as="targetPoint" />
            <Array as="points">
              <mxPoint x="1010" y="280" />
            </Array>
          </mxGeometry>
        </mxCell>
        <mxCell id="HlKlNwCH5ZgdbXaKiqXz-30" value="" style="endArrow=none;html=1;rounded=0;exitX=0.5;exitY=0.5;exitDx=0;exitDy=0;exitPerimeter=0;entryX=0;entryY=0.5;entryDx=0;entryDy=0;" edge="1" parent="1" source="HlKlNwCH5ZgdbXaKiqXz-2" target="HlKlNwCH5ZgdbXaKiqXz-24">
          <mxGeometry width="50" height="50" relative="1" as="geometry">
            <mxPoint x="580" y="290" as="sourcePoint" />
            <mxPoint x="630" y="240" as="targetPoint" />
            <Array as="points">
              <mxPoint x="230" y="280" />
            </Array>
          </mxGeometry>
        </mxCell>
        <mxCell id="HlKlNwCH5ZgdbXaKiqXz-31" value="" style="endArrow=none;html=1;rounded=0;exitX=0.5;exitY=0.5;exitDx=0;exitDy=0;exitPerimeter=0;entryX=0;entryY=0.5;entryDx=0;entryDy=0;" edge="1" parent="1" source="HlKlNwCH5ZgdbXaKiqXz-2" target="HlKlNwCH5ZgdbXaKiqXz-23">
          <mxGeometry width="50" height="50" relative="1" as="geometry">
            <mxPoint x="580" y="290" as="sourcePoint" />
            <mxPoint x="630" y="240" as="targetPoint" />
            <Array as="points">
              <mxPoint x="240" y="230" />
            </Array>
          </mxGeometry>
        </mxCell>
        <mxCell id="HlKlNwCH5ZgdbXaKiqXz-32" value="" style="endArrow=none;html=1;rounded=0;exitX=0.5;exitY=0.5;exitDx=0;exitDy=0;exitPerimeter=0;entryX=0;entryY=0.5;entryDx=0;entryDy=0;" edge="1" parent="1" source="HlKlNwCH5ZgdbXaKiqXz-2" target="HlKlNwCH5ZgdbXaKiqXz-4">
          <mxGeometry width="50" height="50" relative="1" as="geometry">
            <mxPoint x="580" y="290" as="sourcePoint" />
            <mxPoint x="630" y="240" as="targetPoint" />
            <Array as="points">
              <mxPoint x="240" y="160" />
            </Array>
          </mxGeometry>
        </mxCell>
        <mxCell id="HlKlNwCH5ZgdbXaKiqXz-18" value="" style="endArrow=none;html=1;rounded=0;entryX=1;entryY=0;entryDx=0;entryDy=0;exitX=0.5;exitY=0.5;exitDx=0;exitDy=0;exitPerimeter=0;" edge="1" parent="1" source="HlKlNwCH5ZgdbXaKiqXz-3" target="HlKlNwCH5ZgdbXaKiqXz-6">
          <mxGeometry width="50" height="50" relative="1" as="geometry">
            <mxPoint x="1060" y="180" as="sourcePoint" />
            <mxPoint x="915" y="115" as="targetPoint" />
            <Array as="points">
              <mxPoint x="985" y="150" />
              <mxPoint x="785" y="150" />
            </Array>
          </mxGeometry>
        </mxCell>
        <mxCell id="HlKlNwCH5ZgdbXaKiqXz-34" value="" style="endArrow=none;html=1;rounded=0;entryX=0.5;entryY=0.5;entryDx=0;entryDy=0;entryPerimeter=0;exitX=0;exitY=0.5;exitDx=0;exitDy=0;" edge="1" parent="1" source="HlKlNwCH5ZgdbXaKiqXz-33" target="HlKlNwCH5ZgdbXaKiqXz-2">
          <mxGeometry width="50" height="50" relative="1" as="geometry">
            <mxPoint x="540" y="370" as="sourcePoint" />
            <mxPoint x="590" y="320" as="targetPoint" />
            <Array as="points">
              <mxPoint x="220" y="360" />
            </Array>
          </mxGeometry>
        </mxCell>
        <mxCell id="HlKlNwCH5ZgdbXaKiqXz-38" value="Trainer" style="shape=umlActor;verticalLabelPosition=bottom;verticalAlign=top;html=1;outlineConnect=0;" vertex="1" parent="1">
          <mxGeometry x="1070" y="490" width="30" height="60" as="geometry" />
        </mxCell>
        <mxCell id="HlKlNwCH5ZgdbXaKiqXz-59" value="" style="endArrow=none;html=1;rounded=0;entryX=0.5;entryY=0.5;entryDx=0;entryDy=0;entryPerimeter=0;exitX=1;exitY=0;exitDx=0;exitDy=0;" edge="1" parent="1" source="HlKlNwCH5ZgdbXaKiqXz-36" target="HlKlNwCH5ZgdbXaKiqXz-38">
          <mxGeometry width="50" height="50" relative="1" as="geometry">
            <mxPoint x="660" y="510" as="sourcePoint" />
            <mxPoint x="710" y="460" as="targetPoint" />
            <Array as="points">
              <mxPoint x="900" y="460" />
            </Array>
          </mxGeometry>
        </mxCell>
        <mxCell id="HlKlNwCH5ZgdbXaKiqXz-61" value="" style="endArrow=none;html=1;rounded=0;entryX=0.5;entryY=0.5;entryDx=0;entryDy=0;entryPerimeter=0;exitX=1;exitY=0.5;exitDx=0;exitDy=0;" edge="1" parent="1" source="HlKlNwCH5ZgdbXaKiqXz-41" target="HlKlNwCH5ZgdbXaKiqXz-38">
          <mxGeometry width="50" height="50" relative="1" as="geometry">
            <mxPoint x="660" y="510" as="sourcePoint" />
            <mxPoint x="710" y="460" as="targetPoint" />
            <Array as="points">
              <mxPoint x="1020" y="590" />
            </Array>
          </mxGeometry>
        </mxCell>
        <mxCell id="HlKlNwCH5ZgdbXaKiqXz-62" value="" style="endArrow=none;html=1;rounded=0;entryX=0.5;entryY=0.5;entryDx=0;entryDy=0;entryPerimeter=0;exitX=1;exitY=0.5;exitDx=0;exitDy=0;" edge="1" parent="1" source="HlKlNwCH5ZgdbXaKiqXz-40" target="HlKlNwCH5ZgdbXaKiqXz-38">
          <mxGeometry width="50" height="50" relative="1" as="geometry">
            <mxPoint x="660" y="510" as="sourcePoint" />
            <mxPoint x="710" y="460" as="targetPoint" />
            <Array as="points">
              <mxPoint x="1010" y="550" />
            </Array>
          </mxGeometry>
        </mxCell>
        <mxCell id="HlKlNwCH5ZgdbXaKiqXz-64" value="" style="endArrow=none;html=1;rounded=0;entryX=0.5;entryY=0.5;entryDx=0;entryDy=0;entryPerimeter=0;exitX=0;exitY=0.5;exitDx=0;exitDy=0;" edge="1" parent="1" source="HlKlNwCH5ZgdbXaKiqXz-63" target="HlKlNwCH5ZgdbXaKiqXz-2">
          <mxGeometry width="50" height="50" relative="1" as="geometry">
            <mxPoint x="660" y="400" as="sourcePoint" />
            <mxPoint x="710" y="350" as="targetPoint" />
            <Array as="points">
              <mxPoint x="200" y="380" />
            </Array>
          </mxGeometry>
        </mxCell>
      </root>
    </mxGraphModel>
  </diagram>
</mxfile>
